<svg width="25" height="24" viewBox="0 0 25 24" fill="none" xmlns="http://www.w3.org/2000/svg">
<path d="M12.5004 1C18.5295 1.00021 23.3998 5.9345 23.3998 12C23.3998 18.0655 18.5295 22.9998 12.5004 23C6.47101 23 1.59998 18.0656 1.59998 12C1.59998 5.93437 6.47101 1 12.5004 1Z" fill="black" stroke="#06D6A0" stroke-width="2"/>
<mask id="path-2-inside-1_1_105" fill="white">
<path fill-rule="evenodd" clip-rule="evenodd" d="M4.57925 6C3.33643 7.67132 2.59998 9.74879 2.59998 12C2.59998 17.5228 7.03236 22 12.5 22C17.9676 22 22.4 17.5228 22.4 12C22.4 9.74879 21.6635 7.67132 20.4207 6H4.57925Z"/>
</mask>
<path fill-rule="evenodd" clip-rule="evenodd" d="M4.57925 6C3.33643 7.67132 2.59998 9.74879 2.59998 12C2.59998 17.5228 7.03236 22 12.5 22C17.9676 22 22.4 17.5228 22.4 12C22.4 9.74879 21.6635 7.67132 20.4207 6H4.57925Z" fill="#333333"/>
<path d="M4.57925 6V3H3.07156L2.1719 4.20985L4.57925 6ZM20.4207 6L22.8281 4.20985L21.9284 3H20.4207V6ZM5.59998 12C5.59998 10.4131 6.11687 8.95975 6.98661 7.79015L2.1719 4.20985C0.555981 6.38289 -0.400024 9.08449 -0.400024 12H5.59998ZM12.5 19C8.71757 19 5.59998 15.8945 5.59998 12H-0.400024C-0.400024 19.1512 5.34715 25 12.5 25V19ZM19.4 12C19.4 15.8945 16.2824 19 12.5 19V25C19.6528 25 25.4 19.1512 25.4 12H19.4ZM18.0133 7.79015C18.8831 8.95975 19.4 10.4131 19.4 12H25.4C25.4 9.08449 24.444 6.38289 22.8281 4.20985L18.0133 7.79015ZM20.4207 3H4.57925V9H20.4207V3Z" fill="black" mask="url(#path-2-inside-1_1_105)"/>
<rect x="7.54999" y="12" width="9.9" height="3" fill="#06D6A0"/>
<path fill-rule="evenodd" clip-rule="evenodd" d="M7.54999 12H8.53999V13H9.52999H10.52V12H11.51V13H12.5H13.49V12H14.48V13H15.47H16.46V12H17.45V15H16.46V14H15.47H14.48V15H13.49V14H12.5H11.51V15H10.52V14H9.52999H8.53999V15H7.54999V12Z" fill="black"/>
</svg>
