<svg width="25" height="24" viewBox="0 0 25 24" fill="none" xmlns="http://www.w3.org/2000/svg">
<path d="M12.7004 1C18.7296 1.00021 23.5998 5.9345 23.5998 12C23.5998 18.0655 18.7296 22.9998 12.7004 23C6.67102 23 1.79999 18.0656 1.79999 12C1.79999 5.93437 6.67102 1 12.7004 1Z" fill="black" stroke="#118AB2" stroke-width="2"/>
<mask id="path-2-inside-1_1_85" fill="white">
<path fill-rule="evenodd" clip-rule="evenodd" d="M4.77926 6C3.53644 7.67132 2.79999 9.74879 2.79999 12C2.79999 17.5228 7.23237 22 12.7 22C18.1676 22 22.6 17.5228 22.6 12C22.6 9.74879 21.8635 7.67132 20.6207 6H4.77926Z"/>
</mask>
<path fill-rule="evenodd" clip-rule="evenodd" d="M4.77926 6C3.53644 7.67132 2.79999 9.74879 2.79999 12C2.79999 17.5228 7.23237 22 12.7 22C18.1676 22 22.6 17.5228 22.6 12C22.6 9.74879 21.8635 7.67132 20.6207 6H4.77926Z" fill="#333333"/>
<path d="M4.77926 6V3H3.27157L2.37191 4.20985L4.77926 6ZM20.6207 6L23.0281 4.20985L22.1284 3H20.6207V6ZM5.79999 12C5.79999 10.4131 6.31688 8.95975 7.18662 7.79015L2.37191 4.20985C0.755993 6.38289 -0.200012 9.08449 -0.200012 12H5.79999ZM12.7 19C8.91758 19 5.79999 15.8945 5.79999 12H-0.200012C-0.200012 19.1512 5.54716 25 12.7 25V19ZM19.6 12C19.6 15.8945 16.4824 19 12.7 19V25C19.8528 25 25.6 19.1512 25.6 12H19.6ZM18.2134 7.79015C19.0831 8.95975 19.6 10.4131 19.6 12H25.6C25.6 9.08449 24.644 6.38289 23.0281 4.20985L18.2134 7.79015ZM20.6207 3H4.77926V9H20.6207V3Z" fill="black" mask="url(#path-2-inside-1_1_85)"/>
<rect x="7.75" y="12" width="9.9" height="3" fill="#118AB2"/>
<path fill-rule="evenodd" clip-rule="evenodd" d="M7.75 12H8.74V13H9.73H10.72V12H11.71V13H12.7H13.69V12H14.68V13H15.67H16.66V12H17.65V15H16.66V14H15.67H14.68V15H13.69V14H12.7H11.71V15H10.72V14H9.73H8.74V15H7.75V12Z" fill="black"/>
</svg>
