<svg width="20" height="20" viewBox="0 0 20 20" fill="none" xmlns="http://www.w3.org/2000/svg">
<ellipse cx="10.1" cy="10" rx="9.9" ry="10" fill="black"/>
<mask id="path-2-inside-1_1_145" fill="white">
<path fill-rule="evenodd" clip-rule="evenodd" d="M2.17929 4C0.936463 5.67132 0.200012 7.74879 0.200012 10C0.200012 15.5228 4.63239 20 10.1 20C15.5676 20 20 15.5228 20 10C20 7.74879 19.2636 5.67132 18.0207 4H2.17929Z"/>
</mask>
<path fill-rule="evenodd" clip-rule="evenodd" d="M2.17929 4C0.936463 5.67132 0.200012 7.74879 0.200012 10C0.200012 15.5228 4.63239 20 10.1 20C15.5676 20 20 15.5228 20 10C20 7.74879 19.2636 5.67132 18.0207 4H2.17929Z" fill="#333333"/>
<path d="M2.17929 4V1H0.671597L-0.228068 2.20985L2.17929 4ZM18.0207 4L20.4281 2.20985L19.5284 1H18.0207V4ZM3.20001 10C3.20001 8.41309 3.71691 6.95975 4.58664 5.79015L-0.228068 2.20985C-1.84398 4.38289 -2.79999 7.08449 -2.79999 10H3.20001ZM10.1 17C6.3176 17 3.20001 13.8945 3.20001 10H-2.79999C-2.79999 17.1512 2.94718 23 10.1 23V17ZM17 10C17 13.8945 13.8824 17 10.1 17V23C17.2528 23 23 17.1512 23 10H17ZM15.6134 5.79015C16.4831 6.95975 17 8.41309 17 10H23C23 7.08449 22.044 4.38289 20.4281 2.20985L15.6134 5.79015ZM18.0207 1H2.17929V7H18.0207V1Z" fill="black" mask="url(#path-2-inside-1_1_145)"/>
<rect x="5.15002" y="10" width="9.9" height="3" fill="white"/>
<path fill-rule="evenodd" clip-rule="evenodd" d="M5.15002 10H6.14002V11H7.13002H8.12002V10H9.11002V11H10.1H11.09V10H12.08V11H13.07H14.06V10H15.05V13H14.06V12H13.07L13.07 13V12H12.08V13H11.09V12H10.1H9.11002V13H8.12002V12H7.13002H6.14002V13H5.15002V10Z" fill="black"/>
</svg>
