<svg width="25" height="24" viewBox="0 0 25 24" fill="none" xmlns="http://www.w3.org/2000/svg">
<path d="M12.3004 1C18.3296 1.00021 23.1998 5.9345 23.1998 12C23.1998 18.0655 18.3296 22.9998 12.3004 23C6.27106 23 1.40002 18.0656 1.40002 12C1.40002 5.93437 6.27106 1 12.3004 1Z" fill="black" stroke="#FFD166" stroke-width="2"/>
<mask id="path-2-inside-1_1_125" fill="white">
<path fill-rule="evenodd" clip-rule="evenodd" d="M4.3793 6C3.13648 7.67132 2.40002 9.74879 2.40002 12C2.40002 17.5228 6.83241 22 12.3 22C17.7676 22 22.2 17.5228 22.2 12C22.2 9.74879 21.4636 7.67132 20.2207 6H4.3793Z"/>
</mask>
<path fill-rule="evenodd" clip-rule="evenodd" d="M4.3793 6C3.13648 7.67132 2.40002 9.74879 2.40002 12C2.40002 17.5228 6.83241 22 12.3 22C17.7676 22 22.2 17.5228 22.2 12C22.2 9.74879 21.4636 7.67132 20.2207 6H4.3793Z" fill="#333333"/>
<path d="M4.3793 6V3H2.87161L1.97194 4.20985L4.3793 6ZM20.2207 6L22.6281 4.20985L21.7284 3H20.2207V6ZM5.40002 12C5.40002 10.4131 5.91692 8.95975 6.78665 7.79015L1.97194 4.20985C0.35603 6.38289 -0.599976 9.08449 -0.599976 12H5.40002ZM12.3 19C8.51761 19 5.40002 15.8945 5.40002 12H-0.599976C-0.599976 19.1512 5.1472 25 12.3 25V19ZM19.2 12C19.2 15.8945 16.0824 19 12.3 19V25C19.4529 25 25.2 19.1512 25.2 12H19.2ZM17.8134 7.79015C18.6831 8.95975 19.2 10.4131 19.2 12H25.2C25.2 9.08449 24.244 6.38289 22.6281 4.20985L17.8134 7.79015ZM20.2207 3H4.3793V9H20.2207V3Z" fill="black" mask="url(#path-2-inside-1_1_125)"/>
<rect x="7.35004" y="12" width="9.9" height="3" fill="#FFD166"/>
<path fill-rule="evenodd" clip-rule="evenodd" d="M7.35004 12H8.34004V13H9.33004H10.32V12H11.31V13H12.3H13.29V12H14.28V13H15.27H16.26V12H17.25V15H16.26V14H15.27L15.27 15V14H14.28V15H13.29V14H12.3H11.31V15H10.32V14H9.33004H8.34004V15H7.35004V12Z" fill="black"/>
</svg>
