<svg width="24" height="24" viewBox="0 0 24 24" fill="none" xmlns="http://www.w3.org/2000/svg">
<path d="M11.9004 1C17.9296 1.00021 22.7998 5.9345 22.7998 12C22.7998 18.0655 17.9296 22.9998 11.9004 23C5.87104 23 1 18.0656 1 12C1 5.93437 5.87104 1 11.9004 1Z" fill="black" stroke="#EF476F" stroke-width="2"/>
<mask id="path-2-inside-1_1_63" fill="white">
<path fill-rule="evenodd" clip-rule="evenodd" d="M3.97927 6C2.73645 7.67132 2 9.74879 2 12C2 17.5228 6.43238 22 11.9 22C17.3676 22 21.8 17.5228 21.8 12C21.8 9.74879 21.0635 7.67132 19.8207 6H3.97927Z"/>
</mask>
<path fill-rule="evenodd" clip-rule="evenodd" d="M3.97927 6C2.73645 7.67132 2 9.74879 2 12C2 17.5228 6.43238 22 11.9 22C17.3676 22 21.8 17.5228 21.8 12C21.8 9.74879 21.0635 7.67132 19.8207 6H3.97927Z" fill="#333333"/>
<path d="M3.97927 6V3H2.47158L1.57192 4.20985L3.97927 6ZM19.8207 6L22.2281 4.20985L21.3284 3H19.8207V6ZM5 12C5 10.4131 5.5169 8.95975 6.38663 7.79015L1.57192 4.20985C-0.0439947 6.38289 -1 9.08449 -1 12H5ZM11.9 19C8.11759 19 5 15.8945 5 12H-1C-1 19.1512 4.74717 25 11.9 25V19ZM18.8 12C18.8 15.8945 15.6824 19 11.9 19V25C19.0528 25 24.8 19.1512 24.8 12H18.8ZM17.4134 7.79015C18.2831 8.95975 18.8 10.4131 18.8 12H24.8C24.8 9.08449 23.844 6.38289 22.2281 4.20985L17.4134 7.79015ZM19.8207 3H3.97927V9H19.8207V3Z" fill="black" mask="url(#path-2-inside-1_1_63)"/>
<rect x="6.95001" y="12" width="9.9" height="3" fill="#EF476F"/>
<path fill-rule="evenodd" clip-rule="evenodd" d="M6.95001 12H7.94001V13H8.93001H9.92001V12H10.91V13H11.9H12.89V12H13.88V13H14.87H15.86V12H16.85V15H15.86V14H14.87H13.88V15H12.89V14H11.9H10.91V15H9.92001V14H8.93001H7.94001V15H6.95001V12Z" fill="black"/>
</svg>
